<?xml version="1.0" standalone="no"?>
<!DOCTYPE svg PUBLIC "-//W3C//DTD SVG 20010904//EN"
 "http://www.w3.org/TR/2001/REC-SVG-20010904/DTD/svg10.dtd">
<svg version="1.0" xmlns="http://www.w3.org/2000/svg"
 width="229.000000pt" height="229.000000pt" viewBox="0 0 229.000000 229.000000"
 preserveAspectRatio="xMidYMid meet">
<metadata>
Created by potrace 1.11, written by Peter Selinger 2001-2013
</metadata>
<g transform="translate(0.000000,229.000000) scale(0.100000,-0.100000)"
fill="#000000" stroke="none">
<path d="M1216 2225 c-11 -8 -16 -15 -10 -15 5 0 18 7 28 15 11 8 16 15 10 15
-5 0 -18 -7 -28 -15z"/>
<path d="M1085 2145 c-55 -35 -106 -73 -114 -85 -7 -11 -20 -20 -27 -20 -16 0
-291 -167 -301 -183 -4 -7 -12 -52 -18 -102 -11 -96 -14 -100 -70 -81 -11 4
-3 -2 18 -14 20 -11 37 -24 37 -28 0 -4 -59 -45 -130 -91 -100 -64 -136 -82
-154 -77 -52 13 -196 79 -190 87 3 5 1 9 -5 9 -19 0 -33 -40 -25 -73 4 -18 9
-26 11 -19 3 6 9 12 15 12 20 0 177 -72 192 -89 16 -17 86 -235 86 -266 0 -19
-13 -16 -109 27 -50 22 -66 26 -73 16 -10 -17 -9 -38 3 -63 9 -19 9 -18 5 3
-3 14 1 22 9 22 15 0 170 -73 190 -90 16 -13 91 -277 81 -287 -3 -4 -40 10
-82 30 -85 42 -104 45 -104 16 0 -11 4 -17 10 -14 12 7 191 -89 215 -115 8 -9
32 -70 52 -135 28 -90 34 -120 25 -123 -9 -3 -7 -9 8 -19 12 -8 23 -13 26 -10
3 3 -11 59 -32 126 -20 67 -33 125 -29 129 11 12 236 -110 245 -132 5 -12 21
-72 36 -134 22 -88 26 -115 16 -121 -9 -5 -5 -11 13 -19 33 -15 55 -15 55 -1
0 7 -14 63 -31 126 -18 62 -29 116 -26 119 3 3 59 -22 125 -55 135 -68 120
-48 167 -222 14 -53 24 -107 23 -120 -2 -18 2 -25 20 -27 13 -2 30 2 38 9 14
11 14 14 -3 20 -15 5 -26 37 -51 143 -17 75 -29 142 -26 149 6 14 225 184 250
194 10 4 17 -1 21 -16 3 -11 8 -21 12 -21 3 0 40 27 81 60 41 33 80 60 87 60
8 0 4 -20 -12 -57 -13 -32 -21 -60 -19 -62 7 -7 28 17 30 34 1 8 16 45 34 83
29 64 39 74 132 143 55 41 103 73 107 72 3 -1 11 9 17 22 8 17 -16 3 -87 -51
-54 -40 -103 -74 -109 -74 -5 0 12 44 39 98 49 95 51 98 150 172 56 41 106 74
111 73 6 -2 10 4 10 13 0 17 -15 8 -122 -73 -31 -24 -61 -43 -67 -43 -12 0 59
173 83 199 30 33 213 170 219 164 3 -3 9 7 13 22 5 18 2 32 -10 43 -15 15 -16
15 -16 0 0 -23 -214 -180 -239 -176 -26 4 -269 219 -270 238 0 8 49 53 110 99
85 63 116 82 134 78 14 -2 22 0 19 4 -3 5 -16 9 -28 9 -17 0 -25 7 -30 28 -7
31 -261 255 -296 260 -11 2 -20 9 -20 16 0 8 -7 19 -15 26 -8 7 -15 8 -15 3 0
-6 -56 -47 -124 -92 -104 -69 -123 -86 -118 -103 3 -15 1 -19 -9 -16 -8 3 -13
14 -12 25 2 14 -34 51 -122 128 -69 59 -125 111 -125 116 0 4 40 33 90 64 49
31 92 61 96 66 8 13 9 14 -101 -56z m-2 -221 c64 -58 117 -111 117 -119 0 -20
-220 -174 -249 -175 -17 0 -60 34 -148 117 -101 94 -122 118 -111 129 26 24
243 154 258 154 8 0 68 -48 133 -106z m623 -81 c73 -62 123 -114 122 -122 -4
-19 -215 -171 -237 -171 -17 0 -261 215 -261 230 0 10 228 170 243 170 5 0 65
-48 133 -107z m-310 -204 c63 -55 118 -109 124 -119 9 -17 1 -26 -62 -73 -125
-92 -128 -94 -143 -74 -7 9 -36 27 -66 41 -74 32 -116 42 -51 12 28 -14 52
-30 52 -35 0 -13 -264 -191 -283 -191 -17 0 -238 89 -255 102 -9 8 -10 14 -1
25 14 16 232 171 253 179 7 3 48 -9 91 -26 43 -17 80 -29 82 -26 2 2 -6 7 -19
11 -27 8 -108 84 -108 102 0 16 229 172 254 173 10 0 69 -45 132 -101z m57
-11 c40 -38 59 -61 42 -50 -44 29 -164 145 -137 132 13 -7 56 -43 95 -82z
m-655 -49 c61 -23 112 -48 112 -55 0 -11 -198 -151 -257 -183 -19 -10 -40 -4
-138 35 -63 25 -117 50 -120 54 -7 11 23 35 143 116 59 40 116 73 127 73 11 1
71 -18 133 -40z m158 20 c10 -17 -13 -36 -27 -22 -12 12 -4 33 11 33 5 0 12
-5 16 -11z m640 -70 c10 -17 -13 -36 -27 -22 -12 12 -4 33 11 33 5 0 12 -5 16
-11z m144 -200 c72 -66 130 -126 129 -132 0 -12 -215 -182 -243 -193 -16 -6
-276 231 -276 252 0 12 236 193 253 194 4 0 66 -54 137 -121z m-1364 100 c10
-17 -13 -36 -27 -22 -12 12 -4 33 11 33 5 0 12 -5 16 -11z m135 -115 c72 -31
110 -52 116 -67 21 -47 86 -278 80 -284 -4 -3 -56 17 -117 45 -79 36 -110 47
-110 36 0 -8 -4 -14 -10 -14 -12 0 -13 13 -1 25 5 6 -9 63 -35 140 -43 130
-51 165 -36 165 4 0 55 -20 113 -46z m1290 9 c13 -16 12 -17 -3 -4 -10 7 -18
15 -18 17 0 8 8 3 21 -13z m-504 -5 c15 -19 68 -291 61 -309 -3 -9 -64 -57
-134 -108 -102 -73 -130 -89 -139 -79 -7 7 -29 80 -49 162 -30 122 -34 151
-24 164 14 16 259 182 269 182 4 0 11 -6 16 -12z m-631 -9 c10 -17 -13 -36
-27 -22 -12 12 -4 33 11 33 5 0 12 -5 16 -11z m141 -100 c65 -28 125 -58 135
-67 13 -14 88 -276 88 -311 0 -19 -24 -12 -136 39 -60 27 -110 45 -112 40 -7
-19 -22 -10 -21 13 0 12 -20 87 -45 167 -41 129 -48 170 -32 170 3 0 58 -23
123 -51z m1123 10 c0 -24 -23 -21 -28 4 -2 10 3 17 12 17 10 0 16 -9 16 -21z
m-942 -56 c-4 -22 -22 -20 -26 1 -2 10 3 16 13 16 10 0 15 -7 13 -17z m853
-125 l-47 -103 -117 -92 c-64 -51 -118 -89 -121 -85 -2 4 12 47 32 96 l37 89
124 98 c68 55 127 99 132 99 4 0 -14 -46 -40 -102z m-361 47 c13 -14 21 -25
18 -25 -2 0 -15 11 -28 25 -13 14 -21 25 -18 25 2 0 15 -11 28 -25z m130 -111
c0 -8 -7 -14 -15 -14 -15 0 -21 21 -9 33 10 9 24 -2 24 -19z m-960 -44 l99
-50 15 -52 c33 -114 58 -229 53 -235 -7 -7 -196 93 -218 115 -16 17 -79 220
-79 255 0 27 22 21 130 -33z m744 1 c11 -17 64 -284 59 -297 -4 -12 -186 -157
-233 -186 -32 -20 -45 5 -80 155 -27 118 -30 141 -18 157 16 24 237 180 254
180 7 0 15 -4 18 -9z m172 -96 c-28 -63 -42 -73 -22 -17 22 61 40 95 44 83 2
-6 -8 -36 -22 -66z m198 33 c-3 -13 -24 -57 -44 -98 -34 -66 -49 -83 -130
-149 -71 -56 -94 -70 -101 -60 -13 21 -11 34 15 93 20 46 40 66 137 144 63 50
118 91 122 92 5 0 5 -10 1 -22z m-741 -115 l50 -28 34 -125 c18 -69 33 -135
33 -148 0 -30 -10 -27 -152 44 -100 50 -108 56 -117 91 -42 159 -61 245 -56
253 6 9 113 -36 208 -87z m83 26 c10 -17 -13 -36 -27 -22 -12 12 -4 33 11 33
5 0 12 -5 16 -11z m-236 -239 c0 -5 -4 -10 -10 -10 -5 0 -10 5 -10 10 0 6 5
10 10 10 6 0 10 -4 10 -10z m310 -145 c0 -8 -4 -15 -10 -15 -5 0 -10 7 -10 15
0 8 5 15 10 15 6 0 10 -7 10 -15z"/>
<path d="M242 1075 c0 -5 6 -26 13 -45 7 -19 14 -28 14 -20 0 8 -6 29 -14 45
-7 17 -13 26 -13 20z"/>
<path d="M1492 505 c0 -11 4 -31 8 -45 6 -20 8 -21 8 -5 0 11 -4 31 -8 45 -6
20 -8 21 -8 5z"/>
<path d="M1526 263 c-6 -14 -5 -15 5 -6 7 7 10 15 7 18 -3 3 -9 -2 -12 -12z"/>
<path d="M1469 213 c-13 -16 -12 -17 4 -4 16 13 21 21 13 21 -2 0 -10 -8 -17
-17z"/>
<path d="M980 210 c0 -5 9 -14 20 -20 11 -6 20 -9 20 -8 0 2 -9 11 -20 21 -11
9 -20 13 -20 7z"/>
<path d="M1150 106 c0 -3 9 -10 20 -16 11 -6 20 -8 20 -6 0 3 -9 10 -20 16
-11 6 -20 8 -20 6z"/>
</g>
</svg>
